<svg version="1.1" id="Layer_1" xmlns="http://www.w3.org/2000/svg" xmlns:xlink="http://www.w3.org/1999/xlink" x="0px" y="0px"
	 width="100%" viewBox="0 0 2000 1333" enable-background="new 0 0 2000 1333" xml:space="preserve">
<path fill="none" opacity="1.000000" stroke="none" 
	d="
M1443.000000,1334.000000 
	C962.000122,1334.000000 481.500275,1334.000000 1.000322,1334.000000 
	C1.000215,889.666931 1.000215,445.333893 1.000107,1.000620 
	C667.666199,1.000414 1334.332397,1.000414 2000.998901,1.000207 
	C2000.999268,445.332733 2000.999268,889.665466 2000.999634,1333.999023 
	C1815.166626,1334.000000 1629.333374,1334.000000 1443.000000,1334.000000 
M1323.005981,128.484100 
	C1295.665283,111.353317 1266.613037,97.782494 1236.276733,86.911865 
	C1183.061279,67.842850 1127.918457,60.254681 1071.665039,60.185497 
	C926.680359,60.007191 781.695251,60.125229 636.710327,60.124874 
	C634.941895,60.124870 633.173523,60.124874 631.003906,60.124874 
	C631.003906,62.617645 631.003906,64.421631 631.003906,66.225616 
	C631.003906,115.553841 631.003906,164.882065 631.003906,214.210281 
	C631.003906,275.203949 630.951721,336.197784 631.114502,397.191010 
	C631.126038,401.523529 629.855042,403.829956 625.920349,405.457428 
	C621.318665,407.360809 616.950378,409.839355 612.519104,412.142120 
	C585.199829,426.338654 557.476929,439.823547 530.698486,454.976959 
	C505.049988,469.490906 484.590942,489.994324 470.115265,515.895752 
	C452.924927,546.654541 447.529144,579.803345 450.951843,614.660095 
	C454.780365,653.650513 469.817444,687.714478 496.804169,715.973572 
	C531.289795,752.085205 573.937317,770.591370 623.912109,772.022461 
	C626.170349,772.087158 628.432007,772.030762 631.026245,772.030762 
	C631.026245,775.026367 631.026184,777.174133 631.026184,779.321960 
	C631.026184,900.142761 631.007385,1020.963501 631.075562,1141.784302 
	C631.079468,1148.719727 631.298950,1155.724365 632.264038,1162.577637 
	C636.192566,1190.473633 647.687805,1214.997192 667.705322,1234.813721 
	C696.225891,1263.048096 730.501343,1276.600098 771.080750,1273.121704 
	C801.319519,1270.529663 827.488708,1258.815186 849.190369,1238.005737 
	C875.948792,1212.347656 889.151978,1180.527344 889.109253,1143.318726 
	C889.062988,1102.989502 889.099670,1062.660400 889.100098,1022.331238 
	C889.100098,1020.402100 889.100037,1018.472961 889.100037,1016.130066 
	C891.793945,1016.130066 893.763428,1016.139343 895.732849,1016.128784 
	C964.539795,1015.760193 1033.346802,1015.415283 1102.153076,1014.938538 
	C1105.328125,1014.916565 1106.862183,1016.064392 1108.352051,1018.661499 
	C1144.389771,1081.480347 1180.482910,1144.267578 1216.617798,1207.030762 
	C1240.630127,1248.737793 1277.409912,1270.256226 1324.759888,1273.809082 
	C1344.585083,1275.296631 1364.106201,1271.165405 1381.938477,1262.493042 
	C1430.490845,1238.880127 1456.706177,1200.318237 1458.065430,1145.617554 
	C1458.640747,1122.458252 1452.693237,1101.159790 1441.223267,1081.298950 
	C1412.747070,1031.991333 1384.232544,982.705017 1355.433350,933.585999 
	C1352.560791,928.686646 1353.664307,926.806519 1357.688599,923.853882 
	C1396.092896,895.676453 1429.484985,862.302307 1458.445557,824.584167 
	C1521.228516,742.816345 1551.120728,649.696106 1552.818359,547.141296 
	C1553.064575,532.261841 1552.019775,517.327454 1550.907837,502.468231 
	C1549.683472,486.105103 1548.373169,469.695557 1545.903564,453.488556 
	C1539.188232,409.418030 1525.366943,367.492920 1505.638306,327.561249 
	C1487.693359,291.240051 1465.154175,257.958801 1438.433716,227.481750 
	C1404.832397,189.156342 1367.005005,155.790848 1323.005981,128.484100 
z"/>
<path fill="#7579FF" opacity="1.000000" stroke="none" 
	d="
M1323.315674,128.676682 
	C1367.005005,155.790848 1404.832397,189.156342 1438.433716,227.481750 
	C1465.154175,257.958801 1487.693359,291.240051 1505.638306,327.561249 
	C1525.366943,367.492920 1539.188232,409.418030 1545.903564,453.488556 
	C1548.373169,469.695557 1549.683472,486.105103 1550.907837,502.468231 
	C1552.019775,517.327454 1553.064575,532.261841 1552.818359,547.141296 
	C1551.120728,649.696106 1521.228516,742.816345 1458.445557,824.584167 
	C1429.484985,862.302307 1396.092896,895.676453 1357.688599,923.853882 
	C1353.664307,926.806519 1352.560791,928.686646 1355.433350,933.585999 
	C1384.232544,982.705017 1412.747070,1031.991333 1441.223267,1081.298950 
	C1452.693237,1101.159790 1458.640747,1122.458252 1458.065430,1145.617554 
	C1456.706177,1200.318237 1430.490845,1238.880127 1381.938477,1262.493042 
	C1364.106201,1271.165405 1344.585083,1275.296631 1324.759888,1273.809082 
	C1277.409912,1270.256226 1240.630127,1248.737793 1216.617798,1207.030762 
	C1180.482910,1144.267578 1144.389771,1081.480347 1108.352051,1018.661499 
	C1106.862183,1016.064392 1105.328125,1014.916565 1102.153076,1014.938538 
	C1033.346802,1015.415283 964.539795,1015.760193 895.732849,1016.128784 
	C893.763428,1016.139343 891.793945,1016.130066 889.100037,1016.130066 
	C889.100037,1018.472961 889.100098,1020.402100 889.100098,1022.331238 
	C889.099670,1062.660400 889.062988,1102.989502 889.109253,1143.318726 
	C889.151978,1180.527344 875.948792,1212.347656 849.190369,1238.005737 
	C827.488708,1258.815186 801.319519,1270.529663 771.080750,1273.121704 
	C730.501343,1276.600098 696.225891,1263.048096 667.705322,1234.813721 
	C647.687805,1214.997192 636.192566,1190.473633 632.264038,1162.577637 
	C631.298950,1155.724365 631.079468,1148.719727 631.075562,1141.784302 
	C631.007385,1020.963501 631.026184,900.142761 631.026184,779.321960 
	C631.026184,777.174133 631.026245,775.026367 631.026245,772.030762 
	C628.432007,772.030762 626.170349,772.087158 623.912109,772.022461 
	C573.937317,770.591370 531.289795,752.085205 496.804169,715.973572 
	C469.817444,687.714478 454.780365,653.650513 450.951843,614.660095 
	C447.529144,579.803345 452.924927,546.654541 470.115265,515.895752 
	C484.590942,489.994324 505.049988,469.490906 530.698486,454.976959 
	C557.476929,439.823547 585.199829,426.338654 612.519104,412.142120 
	C616.950378,409.839355 621.318665,407.360809 625.920349,405.457428 
	C629.855042,403.829956 631.126038,401.523529 631.114502,397.191010 
	C630.951721,336.197784 631.003906,275.203949 631.003906,214.210281 
	C631.003906,164.882065 631.003906,115.553841 631.003906,66.225616 
	C631.003906,64.421631 631.003906,62.617645 631.003906,60.124874 
	C633.173523,60.124874 634.941895,60.124870 636.710327,60.124874 
	C781.695251,60.125229 926.680359,60.007191 1071.665039,60.185497 
	C1127.918457,60.254681 1183.061279,67.842850 1236.276733,86.911865 
	C1266.613037,97.782494 1295.665283,111.353317 1323.315674,128.676682 
M894.996887,596.035400 
	C859.865784,555.151001 838.594543,507.163147 823.757812,455.656830 
	C821.628418,456.224182 820.029114,456.566193 818.484253,457.073944 
	C744.854614,481.272797 671.236938,505.507751 597.595398,529.670105 
	C588.478699,532.661316 579.238220,535.275269 570.013855,538.016235 
	C570.013855,538.016235 569.971375,537.969482 570.287170,537.350037 
	C634.049561,503.532715 697.817261,469.725372 761.570435,435.890808 
	C776.846863,427.783447 792.030518,419.500366 807.348816,411.473755 
	C812.849487,408.591492 815.217957,404.510040 815.031860,398.236511 
	C814.730591,388.081635 815.043030,377.909027 815.067383,367.743866 
	C815.089172,358.628571 815.071899,349.513184 815.071899,339.434479 
	C809.882996,341.665710 805.389709,343.315643 801.148499,345.463501 
	C725.338562,383.855011 649.464172,422.121704 573.860413,460.915649 
	C560.170776,467.940155 546.821899,476.156952 534.692200,485.592773 
	C500.682556,512.049133 484.161774,547.716675 483.122833,590.555725 
	C482.919159,598.953979 483.961945,607.433411 485.012970,615.802124 
	C488.686279,645.051025 500.636292,670.764954 520.273987,692.525513 
	C550.588745,726.117371 588.677673,743.252441 634.037659,744.084900 
	C641.263855,744.217529 648.478699,744.972290 656.000000,745.458923 
	C656.000000,747.697021 656.000000,749.676453 656.000000,751.655945 
	C656.000000,789.984802 656.523560,828.323486 655.804932,866.638855 
	C655.369446,889.859802 674.304504,913.034180 701.583801,912.158569 
	C724.562561,911.420959 743.979309,892.604736 744.010986,869.679016 
	C744.064697,830.850281 744.030396,792.021423 744.033020,753.192627 
	C744.033142,751.277222 744.033081,749.361816 744.033081,747.397522 
	C746.219727,747.655029 747.678894,747.951721 749.143311,747.980408 
	C767.259827,748.335022 785.376404,748.702820 803.494324,748.966980 
	C879.381042,750.073608 955.301575,746.689941 1031.170898,750.899719 
	C1052.006104,752.055725 1072.403564,755.351624 1092.540161,760.606018 
	C1111.911743,765.660889 1131.156982,772.245789 1151.595459,768.889099 
	C1163.155273,766.990662 1175.054565,765.288696 1185.879028,761.110168 
	C1230.066528,744.052612 1258.950317,711.293091 1276.927490,668.383240 
	C1289.734863,637.813171 1293.851440,605.727844 1293.239990,572.634033 
	C1292.805176,549.099487 1290.821899,525.852783 1285.736938,502.971344 
	C1266.909668,418.253601 1226.770142,345.785919 1159.906372,289.524261 
	C1117.418091,253.773087 1068.984131,232.592148 1012.174255,233.851334 
	C998.534912,234.153656 985.360229,236.169983 972.569397,240.423447 
	C934.575439,253.058029 907.248657,278.482605 887.281494,312.538208 
	C869.392700,343.049072 861.918884,376.656647 859.234863,411.343170 
	C857.643738,431.906281 859.202881,452.598480 862.253479,473.073212 
	C866.108887,498.948700 873.249207,523.988464 881.429382,548.782227 
	C886.577759,564.386658 891.300781,580.131470 895.896301,596.085083 
	C895.896301,596.085083 895.573669,596.351624 894.996887,596.035400 
M1413.012817,375.483551 
	C1422.239014,371.632660 1431.163818,367.266968 1438.822266,360.285645 
	C1430.583130,360.145508 1422.267212,359.683807 1414.616699,361.721008 
	C1399.597534,365.720367 1384.816895,370.744354 1370.179077,376.015228 
	C1350.973511,382.930908 1331.994263,390.476929 1312.938965,397.807159 
	C1310.993530,398.555511 1309.193726,399.681885 1307.326294,400.632843 
	C1308.393921,401.592010 1309.040405,401.710754 1309.628052,401.574799 
	C1329.499512,396.977386 1349.420166,392.577515 1369.213379,387.663727 
	C1383.672241,384.074249 1397.962036,379.803680 1413.012817,375.483551 
M1227.537476,238.073013 
	C1232.827393,229.419815 1237.971924,220.673523 1243.440430,212.134674 
	C1252.114990,198.589752 1258.518311,184.077194 1262.647339,168.556473 
	C1263.503174,165.339371 1264.019287,162.031937 1264.692017,158.766129 
	C1264.236328,158.543716 1263.780640,158.321304 1263.324951,158.098892 
	C1259.234741,162.757126 1254.922607,167.240982 1251.098389,172.108246 
	C1241.889038,183.829895 1235.502197,197.137085 1229.625122,210.763489 
	C1220.617798,231.648239 1211.256348,252.380173 1202.097900,273.200195 
	C1201.136230,275.386292 1200.530029,277.728699 1199.758911,279.998596 
	C1200.222534,280.170471 1200.686157,280.342346 1201.149780,280.514221 
	C1209.812256,266.570618 1218.474731,252.627029 1227.537476,238.073013 
M1397.073608,610.219360 
	C1418.551147,613.425232 1439.464355,611.151428 1459.955688,604.103516 
	C1448.406738,599.787231 1436.628296,596.896973 1424.539185,597.177185 
	C1408.644287,597.545593 1392.775391,599.009338 1376.893433,599.972778 
	C1365.319214,600.674988 1353.732422,601.200623 1342.170532,602.063843 
	C1336.905518,602.456970 1331.687256,603.475891 1326.447876,604.210999 
	C1326.483887,604.902039 1326.520020,605.593140 1326.556152,606.284180 
	C1349.751221,607.558289 1372.946289,608.832336 1397.073608,610.219360 
z"/>
<path fill="#FFFFFF" opacity="1.000000" stroke="none" 
	d="
M570.055115,538.064087 
	C579.238220,535.275269 588.478699,532.661316 597.595398,529.670105 
	C671.236938,505.507751 744.854614,481.272797 818.484253,457.073944 
	C820.029114,456.566193 821.628418,456.224182 823.757812,455.656830 
	C838.594543,507.163147 859.865784,555.151001 895.395813,596.432861 
	C896.096008,597.006042 896.397278,597.181824 896.698547,597.357666 
	C896.537231,596.842896 896.375916,596.328064 896.214539,595.813293 
	C891.300781,580.131470 886.577759,564.386658 881.429382,548.782227 
	C873.249207,523.988464 866.108887,498.948700 862.253479,473.073212 
	C859.202881,452.598480 857.643738,431.906281 859.234863,411.343170 
	C861.918884,376.656647 869.392700,343.049072 887.281494,312.538208 
	C907.248657,278.482605 934.575439,253.058029 972.569397,240.423447 
	C985.360229,236.169983 998.534912,234.153656 1012.174255,233.851334 
	C1068.984131,232.592148 1117.418091,253.773087 1159.906372,289.524261 
	C1226.770142,345.785919 1266.909668,418.253601 1285.736938,502.971344 
	C1290.821899,525.852783 1292.805176,549.099487 1293.239990,572.634033 
	C1293.851440,605.727844 1289.734863,637.813171 1276.927490,668.383240 
	C1258.950317,711.293091 1230.066528,744.052612 1185.879028,761.110168 
	C1175.054565,765.288696 1163.155273,766.990662 1151.595459,768.889099 
	C1131.156982,772.245789 1111.911743,765.660889 1092.540161,760.606018 
	C1072.403564,755.351624 1052.006104,752.055725 1031.170898,750.899719 
	C955.301575,746.689941 879.381042,750.073608 803.494324,748.966980 
	C785.376404,748.702820 767.259827,748.335022 749.143311,747.980408 
	C747.678894,747.951721 746.219727,747.655029 744.033081,747.397522 
	C744.033081,749.361816 744.033142,751.277222 744.033020,753.192627 
	C744.030396,792.021423 744.064697,830.850281 744.010986,869.679016 
	C743.979309,892.604736 724.562561,911.420959 701.583801,912.158569 
	C674.304504,913.034180 655.369446,889.859802 655.804932,866.638855 
	C656.523560,828.323486 656.000000,789.984802 656.000000,751.655945 
	C656.000000,749.676453 656.000000,747.697021 656.000000,745.458923 
	C648.478699,744.972290 641.263855,744.217529 634.037659,744.084900 
	C588.677673,743.252441 550.588745,726.117371 520.273987,692.525513 
	C500.636292,670.764954 488.686279,645.051025 485.012970,615.802124 
	C483.961945,607.433411 482.919159,598.953979 483.122833,590.555725 
	C484.161774,547.716675 500.682556,512.049133 534.692200,485.592773 
	C546.821899,476.156952 560.170776,467.940155 573.860413,460.915649 
	C649.464172,422.121704 725.338562,383.855011 801.148499,345.463501 
	C805.389709,343.315643 809.882996,341.665710 815.071899,339.434479 
	C815.071899,349.513184 815.089172,358.628571 815.067383,367.743866 
	C815.043030,377.909027 814.730591,388.081635 815.031860,398.236511 
	C815.217957,404.510040 812.849487,408.591492 807.348816,411.473755 
	C792.030518,419.500366 776.846863,427.783447 761.570435,435.890808 
	C697.817261,469.725372 634.049561,503.532715 569.842651,537.653687 
	C569.110229,538.092957 568.822388,538.228516 568.534546,538.364075 
	C568.713989,538.532959 568.995728,538.877136 569.056091,538.841919 
	C569.417358,538.631104 569.727722,538.332947 570.055115,538.064087 
M944.030090,301.514252 
	C940.703430,305.015350 937.197449,308.364288 934.078796,312.041809 
	C910.393494,339.971558 900.541870,373.178467 898.128052,408.914795 
	C896.845764,427.898407 899.484497,446.730316 903.620117,465.269287 
	C913.412415,509.165802 933.177490,548.011841 963.008362,581.727966 
	C996.246582,619.295288 1036.786865,643.950073 1086.921143,651.126221 
	C1109.544312,654.364563 1131.652344,651.736511 1152.670776,642.120056 
	C1168.802734,634.739258 1182.408569,623.938110 1194.863281,611.478027 
	C1197.904419,608.435547 1201.524414,605.971680 1204.387207,603.641602 
	C1211.785645,623.984619 1218.844482,643.486084 1226.019043,662.944946 
	C1226.583374,664.475830 1228.300171,667.001404 1228.884277,666.844299 
	C1230.783203,666.333679 1232.964478,665.164307 1234.024780,663.573608 
	C1236.878540,659.292419 1239.430908,654.771912 1241.711426,650.153076 
	C1261.990967,609.078674 1267.339966,565.581360 1261.719360,520.584656 
	C1257.869629,489.765045 1248.036865,460.648651 1233.892090,433.032257 
	C1214.639404,395.443237 1189.198608,362.539581 1158.368286,333.714142 
	C1136.922241,313.662659 1113.414673,296.688873 1086.637451,284.421722 
	C1061.314941,272.820953 1034.907715,267.200409 1007.102722,271.148102 
	C983.240723,274.535889 962.416260,284.828094 944.030090,301.514252 
z"/>
<path fill="#FCFCFF" opacity="1.000000" stroke="none" 
	d="
M1412.670044,375.660126 
	C1397.962036,379.803680 1383.672241,384.074249 1369.213379,387.663727 
	C1349.420166,392.577515 1329.499512,396.977386 1309.628052,401.574799 
	C1309.040405,401.710754 1308.393921,401.592010 1307.326294,400.632843 
	C1309.193726,399.681885 1310.993530,398.555511 1312.938965,397.807159 
	C1331.994263,390.476929 1350.973511,382.930908 1370.179077,376.015228 
	C1384.816895,370.744354 1399.597534,365.720367 1414.616699,361.721008 
	C1422.267212,359.683807 1430.583130,360.145508 1438.822266,360.285645 
	C1431.163818,367.266968 1422.239014,371.632660 1412.670044,375.660126 
z"/>
<path fill="#FCFCFF" opacity="1.000000" stroke="none" 
	d="
M1227.337402,238.378235 
	C1218.474731,252.627029 1209.812256,266.570618 1201.149780,280.514221 
	C1200.686157,280.342346 1200.222534,280.170471 1199.758911,279.998596 
	C1200.530029,277.728699 1201.136230,275.386292 1202.097900,273.200195 
	C1211.256348,252.380173 1220.617798,231.648239 1229.625122,210.763489 
	C1235.502197,197.137085 1241.889038,183.829895 1251.098389,172.108246 
	C1254.922607,167.240982 1259.234741,162.757126 1263.324951,158.098892 
	C1263.780640,158.321304 1264.236328,158.543716 1264.692017,158.766129 
	C1264.019287,162.031937 1263.503174,165.339371 1262.647339,168.556473 
	C1258.518311,184.077194 1252.114990,198.589752 1243.440430,212.134674 
	C1237.971924,220.673523 1232.827393,229.419815 1227.337402,238.378235 
z"/>
<path fill="#FCFCFF" opacity="1.000000" stroke="none" 
	d="
M1396.607422,610.162842 
	C1372.946289,608.832336 1349.751221,607.558289 1326.556152,606.284180 
	C1326.520020,605.593140 1326.483887,604.902039 1326.447876,604.210999 
	C1331.687256,603.475891 1336.905518,602.456970 1342.170532,602.063843 
	C1353.732422,601.200623 1365.319214,600.674988 1376.893433,599.972778 
	C1392.775391,599.009338 1408.644287,597.545593 1424.539185,597.177185 
	C1436.628296,596.896973 1448.406738,599.787231 1459.955688,604.103516 
	C1439.464355,611.151428 1418.551147,613.425232 1396.607422,610.162842 
z"/>
<path fill="#7579FF" opacity="1.000000" stroke="none" 
	d="
M944.284607,301.268494 
	C962.416260,284.828094 983.240723,274.535889 1007.102722,271.148102 
	C1034.907715,267.200409 1061.314941,272.820953 1086.637451,284.421722 
	C1113.414673,296.688873 1136.922241,313.662659 1158.368286,333.714142 
	C1189.198608,362.539581 1214.639404,395.443237 1233.892090,433.032257 
	C1248.036865,460.648651 1257.869629,489.765045 1261.719360,520.584656 
	C1267.339966,565.581360 1261.990967,609.078674 1241.711426,650.153076 
	C1239.430908,654.771912 1236.878540,659.292419 1234.024780,663.573608 
	C1232.964478,665.164307 1230.783203,666.333679 1228.884277,666.844299 
	C1228.300171,667.001404 1226.583374,664.475830 1226.019043,662.944946 
	C1218.844482,643.486084 1211.785645,623.984619 1204.387207,603.641602 
	C1201.524414,605.971680 1197.904419,608.435547 1194.863281,611.478027 
	C1182.408569,623.938110 1168.802734,634.739258 1152.670776,642.120056 
	C1131.652344,651.736511 1109.544312,654.364563 1086.921143,651.126221 
	C1036.786865,643.950073 996.246582,619.295288 963.008362,581.727966 
	C933.177490,548.011841 913.412415,509.165802 903.620117,465.269287 
	C899.484497,446.730316 896.845764,427.898407 898.128052,408.914795 
	C900.541870,373.178467 910.393494,339.971558 934.078796,312.041809 
	C937.197449,308.364288 940.703430,305.015350 944.284607,301.268494 
z"/>
<path fill="#7579FF" opacity="1.000000" stroke="none" 
	d="
M570.034485,538.040161 
	C569.727722,538.332947 569.417358,538.631104 569.056091,538.841919 
	C568.995728,538.877136 568.713989,538.532959 568.534546,538.364075 
	C568.822388,538.228516 569.110229,538.092957 569.684692,537.963440 
	C569.971375,537.969482 570.013855,538.016235 570.034485,538.040161 
z"/>
<path fill="#7579FF" opacity="1.000000" stroke="none" 
	d="
M896.055420,595.949219 
	C896.375916,596.328064 896.537231,596.842896 896.698547,597.357666 
	C896.397278,597.181824 896.096008,597.006042 895.684204,596.590942 
	C895.573669,596.351624 895.896301,596.085083 896.055420,595.949219 
z"/>
</svg>