<svg version="1.1" id="Layer_1" xmlns="http://www.w3.org/2000/svg" xmlns:xlink="http://www.w3.org/1999/xlink" x="0px" y="0px"
	 width="100%" viewBox="0 0 2000 1333" enable-background="new 0 0 2000 1333" xml:space="preserve">
<path fill="none" opacity="1.000000" stroke="none" 
	d="
M1105.000000,1334.000000 
	C736.666748,1334.000000 368.833557,1334.000000 1.000247,1334.000000 
	C1.000165,889.666931 1.000165,445.333832 1.000082,1.000545 
	C667.666199,1.000363 1334.332397,1.000363 2000.999023,1.000182 
	C2000.999268,445.332764 2000.999268,889.665527 2000.999634,1333.999146 
	C1702.500000,1334.000000 1404.000000,1334.000000 1105.000000,1334.000000 
M331.128510,646.502075 
	C331.129059,687.656799 331.121368,728.811523 331.134399,769.966248 
	C331.139252,785.230957 336.146790,798.447327 347.880859,808.520691 
	C362.970978,821.475403 380.286407,824.771423 398.661194,817.395081 
	C417.267914,809.925720 427.843384,795.423218 428.986938,775.313171 
	C429.865387,759.865784 429.241302,744.332947 429.283966,728.838074 
	C429.288879,727.055176 429.284607,725.272217 429.284607,723.000549 
	C431.687195,723.000549 433.479279,723.004089 435.271332,723.000061 
	C459.097229,722.946472 482.924408,723.005249 506.747742,722.728577 
	C510.843506,722.681030 512.970398,724.053223 514.932495,727.501099 
	C528.515869,751.370850 541.805603,775.429749 556.164062,798.830017 
	C569.781616,821.022827 598.912048,827.437195 621.682434,814.375183 
	C644.178223,801.470703 652.546997,772.931885 640.396179,749.728088 
	C635.921143,741.182556 630.845886,732.950684 626.020386,724.589539 
	C619.305542,712.954712 612.568176,701.332825 605.775635,689.593384 
	C607.157776,688.505859 608.178528,687.672974 609.229492,686.880188 
	C626.963318,673.502258 641.862244,657.434204 653.905823,638.822815 
	C670.509644,613.164368 679.501770,585.141724 681.272217,554.427368 
	C682.257446,537.336670 681.585205,520.586243 678.325745,503.923737 
	C670.669495,464.784302 650.981262,432.603546 621.602539,405.883789 
	C587.666992,375.019592 547.663452,359.671478 502.135986,359.246521 
	C446.989807,358.731781 391.835144,359.121918 336.684174,359.134216 
	C334.927856,359.134613 333.171570,359.286102 331.119659,359.380798 
	C331.119659,361.935455 331.119659,363.919128 331.119659,365.902832 
	C331.119934,405.558228 331.068848,445.213776 331.205902,484.868683 
	C331.218567,488.536652 330.178741,490.506927 326.807678,492.108948 
	C317.188660,496.680145 307.766296,501.664703 298.260468,506.474609 
	C272.482208,519.518372 258.276764,545.751038 263.039886,573.961853 
	C267.817688,602.259705 289.691620,624.493835 318.212555,629.076782 
	C322.411133,629.751526 326.653320,630.155029 331.128693,630.715698 
	C331.128693,635.863708 331.128693,640.683777 331.128510,646.502075 
M986.170288,509.872894 
	C985.994324,512.113831 985.818359,514.354736 985.581970,517.364990 
	C984.180481,516.034973 983.360046,515.313965 982.604187,514.530579 
	C969.629822,501.083374 954.792297,490.280914 937.629578,482.759766 
	C911.709839,471.401123 884.658813,468.050110 856.616577,470.826904 
	C817.416443,474.708557 783.563782,490.200745 755.203125,517.409119 
	C723.199951,548.111938 707.542053,586.821716 703.358582,630.087097 
	C701.486633,649.447754 702.084106,669.194641 706.143250,688.598267 
	C711.959534,716.401550 722.212402,742.223633 740.343750,764.263062 
	C780.985413,813.664856 833.113037,836.021118 896.971863,827.788147 
	C931.600403,823.323669 960.618835,807.201965 983.514160,780.542847 
	C984.069275,779.896545 984.812866,779.412170 985.866272,778.512512 
	C985.866272,780.176208 985.910156,781.175659 985.859741,782.170349 
	C984.577637,807.473877 1010.593750,829.031677 1036.855469,821.165222 
	C1052.534180,816.468689 1065.067139,801.415894 1065.079468,785.120605 
	C1065.148193,694.817200 1065.137085,604.513733 1065.078979,514.210327 
	C1065.071167,502.026337 1059.433472,492.394806 1050.015015,485.129639 
	C1027.045166,467.411530 992.456360,479.106995 986.170288,509.872894 
M1302.410156,790.932556 
	C1324.746704,736.268738 1347.087524,681.606628 1369.418579,626.940552 
	C1382.753784,594.295776 1396.377563,561.764343 1409.287354,528.952026 
	C1417.187744,508.871918 1406.647095,486.682770 1386.613770,479.098145 
	C1367.190308,471.744385 1344.889038,481.522125 1337.171509,501.156342 
	C1314.414917,559.051880 1291.823364,617.012268 1269.164062,674.946045 
	C1264.757568,686.212036 1260.336182,697.472107 1255.671021,709.374451 
	C1254.757080,707.435181 1254.144165,706.263123 1253.640015,705.045959 
	C1237.405396,665.855652 1221.192871,626.656128 1204.951782,587.468445 
	C1192.850342,558.269226 1180.933594,528.990540 1168.509033,499.929169 
	C1161.241211,482.929443 1143.206055,474.015137 1125.483521,477.444275 
	C1103.107544,481.773743 1086.447266,506.564484 1097.861084,532.719421 
	C1136.720215,621.765686 1175.063721,711.036987 1213.690063,800.185120 
	C1215.260010,803.808472 1215.427612,806.895386 1213.885620,810.610962 
	C1197.499023,850.097046 1181.213135,889.625244 1165.051270,929.203857 
	C1162.182251,936.229431 1159.989258,943.298645 1161.903809,951.354675 
	C1165.772217,967.632080 1178.496338,980.421753 1193.471924,981.967102 
	C1211.879639,983.866516 1227.205200,974.845703 1234.125610,957.931030 
	C1256.801758,902.507141 1279.447998,847.071106 1302.410156,790.932556 
M1635.564697,603.021362 
	C1621.659058,641.631775 1607.753418,680.242188 1593.453003,719.948792 
	C1592.380249,717.235657 1591.688354,715.592346 1591.075195,713.920166 
	C1565.310669,643.656921 1539.688843,573.340881 1513.716064,503.154755 
	C1505.402710,480.689911 1485.320435,472.516144 1464.181274,478.751221 
	C1443.180542,484.945465 1432.610596,507.451996 1440.344482,528.559753 
	C1448.983521,552.137939 1458.161621,575.518738 1467.120972,598.979309 
	C1490.973145,661.436951 1514.854248,723.883362 1538.679932,786.351074 
	C1547.760376,810.158447 1575.549438,826.380920 1600.213867,822.162903 
	C1623.706421,818.145386 1639.605103,805.295715 1647.945068,783.212646 
	C1678.851562,701.377319 1709.685303,619.514221 1740.317017,537.575867 
	C1743.067261,530.219055 1745.451416,522.299194 1745.776855,514.547302 
	C1746.543823,496.280548 1732.650757,480.404053 1714.643799,477.275574 
	C1696.581787,474.137543 1678.252930,484.395630 1672.120850,501.343506 
	C1659.956055,534.965027 1647.931396,568.637085 1635.564697,603.021362 
z"/>
<path fill="#7579FF" opacity="1.000000" stroke="none" 
	d="
M331.128601,646.002930 
	C331.128693,640.683777 331.128693,635.863708 331.128693,630.715698 
	C326.653320,630.155029 322.411133,629.751526 318.212555,629.076782 
	C289.691620,624.493835 267.817688,602.259705 263.039886,573.961853 
	C258.276764,545.751038 272.482208,519.518372 298.260468,506.474609 
	C307.766296,501.664703 317.188660,496.680145 326.807678,492.108948 
	C330.178741,490.506927 331.218567,488.536652 331.205902,484.868683 
	C331.068848,445.213776 331.119934,405.558228 331.119659,365.902832 
	C331.119659,363.919128 331.119659,361.935455 331.119659,359.380798 
	C333.171570,359.286102 334.927856,359.134613 336.684174,359.134216 
	C391.835144,359.121918 446.989807,358.731781 502.135986,359.246521 
	C547.663452,359.671478 587.666992,375.019592 621.602539,405.883789 
	C650.981262,432.603546 670.669495,464.784302 678.325745,503.923737 
	C681.585205,520.586243 682.257446,537.336670 681.272217,554.427368 
	C679.501770,585.141724 670.509644,613.164368 653.905823,638.822815 
	C641.862244,657.434204 626.963318,673.502258 609.229492,686.880188 
	C608.178528,687.672974 607.157776,688.505859 605.775635,689.593384 
	C612.568176,701.332825 619.305542,712.954712 626.020386,724.589539 
	C630.845886,732.950684 635.921143,741.182556 640.396179,749.728088 
	C652.546997,772.931885 644.178223,801.470703 621.682434,814.375183 
	C598.912048,827.437195 569.781616,821.022827 556.164062,798.830017 
	C541.805603,775.429749 528.515869,751.370850 514.932495,727.501099 
	C512.970398,724.053223 510.843506,722.681030 506.747742,722.728577 
	C482.924408,723.005249 459.097229,722.946472 435.271332,723.000061 
	C433.479279,723.004089 431.687195,723.000549 429.284607,723.000549 
	C429.284607,725.272217 429.288879,727.055176 429.283966,728.838074 
	C429.241302,744.332947 429.865387,759.865784 428.986938,775.313171 
	C427.843384,795.423218 417.267914,809.925720 398.661194,817.395081 
	C380.286407,824.771423 362.970978,821.475403 347.880859,808.520691 
	C336.146790,798.447327 331.139252,785.230957 331.134399,769.966248 
	C331.121368,728.811523 331.129059,687.656799 331.128601,646.002930 
M549.697449,440.779510 
	C557.906982,426.819244 568.600525,414.124237 572.630920,396.900482 
	C565.092712,402.337738 552.240234,426.466156 548.294373,441.083557 
	C548.297974,441.495270 548.301575,441.906952 548.305176,442.318665 
	C548.569519,441.910248 548.833862,441.501862 549.697449,440.779510 
M430.139465,560.928284 
	C417.283752,546.122620 410.347595,528.258362 404.382782,509.763062 
	C395.019623,512.805298 386.209076,515.684692 377.387756,518.530762 
	C356.726379,525.196594 336.059845,531.846436 315.096161,538.113464 
	C315.096161,538.113464 314.773529,537.743469 315.229645,537.231384 
	C325.501770,531.763123 335.763123,526.274475 346.048523,520.831238 
	C362.360138,512.198669 378.727112,503.669281 394.964447,494.899567 
	C397.275726,493.651276 400.532104,491.435944 400.709045,489.434662 
	C401.385468,481.783539 400.982422,474.036957 400.982422,465.785522 
	C399.093414,466.525513 397.991760,466.856262 396.981476,467.367523 
	C366.416290,482.833740 335.795990,498.193085 305.340424,513.872437 
	C295.762421,518.803467 287.508850,525.641846 282.069244,535.184692 
	C263.611267,567.565979 281.894470,609.058167 318.608643,617.794739 
	C325.750854,619.494324 333.209808,619.862732 340.994720,620.908569 
	C340.994720,622.384888 340.994690,624.182861 340.994751,625.980896 
	C340.995178,639.641724 340.969818,653.302673 341.004761,666.963440 
	C341.029327,676.563721 347.680115,683.047729 357.412476,683.057129 
	C367.397308,683.066772 373.957397,676.853699 374.001068,667.209290 
	C374.056915,654.881470 374.019653,642.553223 374.022217,630.225159 
	C374.022827,627.278259 374.022308,624.331360 374.022308,620.971558 
	C376.090851,620.971558 377.551086,620.968872 379.011322,620.972046 
	C406.997528,621.032043 434.984650,620.979370 462.969635,621.195557 
	C479.943878,621.326599 496.704559,622.823669 513.235291,627.495300 
	C519.843933,629.363037 527.521118,629.256226 534.378479,628.088928 
	C553.008057,624.917786 565.283203,612.788818 574.064575,596.836426 
	C584.694519,577.525940 585.025635,556.488037 581.694336,535.669312 
	C575.842285,499.096985 559.165283,468.117615 529.962708,444.582214 
	C515.744507,433.123230 499.504272,426.054871 481.207794,425.170654 
	C457.506897,424.025177 436.335114,437.884430 426.124146,460.200531 
	C416.051880,482.213501 415.954498,504.976715 421.547028,527.976013 
	C424.245941,539.075256 427.883667,549.946350 430.925323,561.065063 
	C430.925323,561.065063 430.752350,561.207031 430.139465,560.928284 
M615.735596,483.085419 
	C623.929626,481.465057 631.896912,479.328339 638.186401,473.310974 
	C620.637390,474.100037 605.501465,482.267029 589.614990,488.106628 
	C589.743164,488.563721 589.871399,489.020813 589.999573,489.477936 
	C598.311096,487.417023 606.622620,485.356140 615.735596,483.085419 
M637.965515,568.807434 
	C640.765808,568.136658 643.566101,567.465942 646.366394,566.795166 
	C629.729431,561.943298 613.242371,565.134399 596.745361,565.891602 
	C596.730286,566.518311 596.715149,567.144958 596.700073,567.771667 
	C610.155334,568.146179 623.610535,568.520691 637.965515,568.807434 
z"/>
<path fill="#7579FF" opacity="1.000000" stroke="none" 
	d="
M986.227173,509.457123 
	C992.456360,479.106995 1027.045166,467.411530 1050.015015,485.129639 
	C1059.433472,492.394806 1065.071167,502.026337 1065.078979,514.210327 
	C1065.137085,604.513733 1065.148193,694.817200 1065.079468,785.120605 
	C1065.067139,801.415894 1052.534180,816.468689 1036.855469,821.165222 
	C1010.593750,829.031677 984.577637,807.473877 985.859741,782.170349 
	C985.910156,781.175659 985.866272,780.176208 985.866272,778.512512 
	C984.812866,779.412170 984.069275,779.896545 983.514160,780.542847 
	C960.618835,807.201965 931.600403,823.323669 896.971863,827.788147 
	C833.113037,836.021118 780.985413,813.664856 740.343750,764.263062 
	C722.212402,742.223633 711.959534,716.401550 706.143250,688.598267 
	C702.084106,669.194641 701.486633,649.447754 703.358582,630.087097 
	C707.542053,586.821716 723.199951,548.111938 755.203125,517.409119 
	C783.563782,490.200745 817.416443,474.708557 856.616577,470.826904 
	C884.658813,468.050110 911.709839,471.401123 937.629578,482.759766 
	C954.792297,490.280914 969.629822,501.083374 982.604187,514.530579 
	C983.360046,515.313965 984.180481,516.034973 985.581970,517.364990 
	C985.818359,514.354736 985.994324,512.113831 986.227173,509.457123 
M967.242676,581.284790 
	C959.689514,571.611267 950.782166,563.430664 940.267578,557.072449 
	C922.359009,546.243042 902.958069,542.363892 882.052979,542.799927 
	C855.325317,543.357361 832.365295,552.722168 813.742004,571.140442 
	C785.112671,599.454651 775.618408,634.102600 784.115173,673.439148 
	C796.305664,729.876648 849.232666,764.710876 904.007751,754.879639 
	C938.289001,748.726685 963.175110,729.459473 978.644531,698.363281 
	C987.136108,681.293579 989.899597,663.095459 989.206177,643.940125 
	C988.369324,620.821228 981.288696,600.317017 967.242676,581.284790 
z"/>
<path fill="#7579FF" opacity="1.000000" stroke="none" 
	d="
M1302.257935,791.286133 
	C1279.447998,847.071106 1256.801758,902.507141 1234.125610,957.931030 
	C1227.205200,974.845703 1211.879639,983.866516 1193.471924,981.967102 
	C1178.496338,980.421753 1165.772217,967.632080 1161.903809,951.354675 
	C1159.989258,943.298645 1162.182251,936.229431 1165.051270,929.203857 
	C1181.213135,889.625244 1197.499023,850.097046 1213.885620,810.610962 
	C1215.427612,806.895386 1215.260010,803.808472 1213.690063,800.185120 
	C1175.063721,711.036987 1136.720215,621.765686 1097.861084,532.719421 
	C1086.447266,506.564484 1103.107544,481.773743 1125.483521,477.444275 
	C1143.206055,474.015137 1161.241211,482.929443 1168.509033,499.929169 
	C1180.933594,528.990540 1192.850342,558.269226 1204.951782,587.468445 
	C1221.192871,626.656128 1237.405396,665.855652 1253.640015,705.045959 
	C1254.144165,706.263123 1254.757080,707.435181 1255.671021,709.374451 
	C1260.336182,697.472107 1264.757568,686.212036 1269.164062,674.946045 
	C1291.823364,617.012268 1314.414917,559.051880 1337.171509,501.156342 
	C1344.889038,481.522125 1367.190308,471.744385 1386.613770,479.098145 
	C1406.647095,486.682770 1417.187744,508.871918 1409.287354,528.952026 
	C1396.377563,561.764343 1382.753784,594.295776 1369.418579,626.940552 
	C1347.087524,681.606628 1324.746704,736.268738 1302.257935,791.286133 
z"/>
<path fill="#7579FF" opacity="1.000000" stroke="none" 
	d="
M1635.706787,602.654785 
	C1647.931396,568.637085 1659.956055,534.965027 1672.120850,501.343506 
	C1678.252930,484.395630 1696.581787,474.137543 1714.643799,477.275574 
	C1732.650757,480.404053 1746.543823,496.280548 1745.776855,514.547302 
	C1745.451416,522.299194 1743.067261,530.219055 1740.317017,537.575867 
	C1709.685303,619.514221 1678.851562,701.377319 1647.945068,783.212646 
	C1639.605103,805.295715 1623.706421,818.145386 1600.213867,822.162903 
	C1575.549438,826.380920 1547.760376,810.158447 1538.679932,786.351074 
	C1514.854248,723.883362 1490.973145,661.436951 1467.120972,598.979309 
	C1458.161621,575.518738 1448.983521,552.137939 1440.344482,528.559753 
	C1432.610596,507.451996 1443.180542,484.945465 1464.181274,478.751221 
	C1485.320435,472.516144 1505.402710,480.689911 1513.716064,503.154755 
	C1539.688843,573.340881 1565.310669,643.656921 1591.075195,713.920166 
	C1591.688354,715.592346 1592.380249,717.235657 1593.453003,719.948792 
	C1607.753418,680.242188 1621.659058,641.631775 1635.706787,602.654785 
z"/>
<path fill="#FEFEFF" opacity="1.000000" stroke="none" 
	d="
M315.395386,538.502686 
	C336.059845,531.846436 356.726379,525.196594 377.387756,518.530762 
	C386.209076,515.684692 395.019623,512.805298 404.382782,509.763062 
	C410.347595,528.258362 417.283752,546.122620 430.490295,561.313049 
	C431.104034,561.894958 431.367004,562.092102 431.629944,562.289246 
	C431.452057,561.833069 431.274170,561.376892 431.096283,560.920715 
	C427.883667,549.946350 424.245941,539.075256 421.547028,527.976013 
	C415.954498,504.976715 416.051880,482.213501 426.124146,460.200531 
	C436.335114,437.884430 457.506897,424.025177 481.207794,425.170654 
	C499.504272,426.054871 515.744507,433.123230 529.962708,444.582214 
	C559.165283,468.117615 575.842285,499.096985 581.694336,535.669312 
	C585.025635,556.488037 584.694519,577.525940 574.064575,596.836426 
	C565.283203,612.788818 553.008057,624.917786 534.378479,628.088928 
	C527.521118,629.256226 519.843933,629.363037 513.235291,627.495300 
	C496.704559,622.823669 479.943878,621.326599 462.969635,621.195557 
	C434.984650,620.979370 406.997528,621.032043 379.011322,620.972046 
	C377.551086,620.968872 376.090851,620.971558 374.022308,620.971558 
	C374.022308,624.331360 374.022827,627.278259 374.022217,630.225159 
	C374.019653,642.553223 374.056915,654.881470 374.001068,667.209290 
	C373.957397,676.853699 367.397308,683.066772 357.412476,683.057129 
	C347.680115,683.047729 341.029327,676.563721 341.004761,666.963440 
	C340.969818,653.302673 340.995178,639.641724 340.994751,625.980896 
	C340.994690,624.182861 340.994720,622.384888 340.994720,620.908569 
	C333.209808,619.862732 325.750854,619.494324 318.608643,617.794739 
	C281.894470,609.058167 263.611267,567.565979 282.069244,535.184692 
	C287.508850,525.641846 295.762421,518.803467 305.340424,513.872437 
	C335.795990,498.193085 366.416290,482.833740 396.981476,467.367523 
	C397.991760,466.856262 399.093414,466.525513 400.982422,465.785522 
	C400.982422,474.036957 401.385468,481.783539 400.709045,489.434662 
	C400.532104,491.435944 397.275726,493.651276 394.964447,494.899567 
	C378.727112,503.669281 362.360138,512.198669 346.048523,520.831238 
	C335.763123,526.274475 325.501770,531.763123 314.686768,537.545288 
	C313.561157,538.016724 312.978424,538.174377 312.395660,538.331970 
	C312.425690,538.516724 312.455719,538.701477 312.485748,538.886230 
	C313.455627,538.758362 314.425507,538.630493 315.395386,538.502686 
M569.604858,566.960388 
	C570.402100,560.566895 571.815125,554.179810 571.881165,547.778748 
	C572.079712,528.551086 566.761414,510.697510 556.754822,494.328888 
	C543.745178,473.047791 527.289307,455.287567 504.234009,444.593384 
	C476.221039,431.599518 449.123962,442.132019 437.563049,470.716370 
	C430.917114,487.148438 431.682129,503.925049 436.969757,520.527100 
	C445.854401,548.423035 462.481232,569.657898 490.424957,580.570679 
	C508.651154,587.688599 525.827087,586.125488 541.203552,573.137085 
	C543.924805,570.838440 546.527954,568.399902 549.325256,565.901245 
	C552.451050,574.456421 555.320557,582.310120 558.620911,591.343140 
	C564.549255,583.463318 567.235352,575.743835 569.604858,566.960388 
z"/>
<path fill="#F7F7FF" opacity="1.000000" stroke="none" 
	d="
M615.334839,483.190308 
	C606.622620,485.356140 598.311096,487.417023 589.999573,489.477936 
	C589.871399,489.020813 589.743164,488.563721 589.614990,488.106628 
	C605.501465,482.267029 620.637390,474.100037 638.186401,473.310974 
	C631.896912,479.328339 623.929626,481.465057 615.334839,483.190308 
z"/>
<path fill="#F7F8FF" opacity="1.000000" stroke="none" 
	d="
M548.711304,440.739685 
	C552.240234,426.466156 565.092712,402.337738 572.630920,396.900482 
	C568.600525,414.124237 557.906982,426.819244 549.301270,440.847839 
	C548.905151,440.916168 548.711304,440.739685 548.711304,440.739685 
z"/>
<path fill="#FCFCFF" opacity="1.000000" stroke="none" 
	d="
M637.515625,568.851318 
	C623.610535,568.520691 610.155334,568.146179 596.700073,567.771667 
	C596.715149,567.144958 596.730286,566.518311 596.745361,565.891602 
	C613.242371,565.134399 629.729431,561.943298 646.366394,566.795166 
	C643.566101,567.465942 640.765808,568.136658 637.515625,568.851318 
z"/>
<path fill="#F7F8FF" opacity="1.000000" stroke="none" 
	d="
M549.001709,441.004822 
	C548.833862,441.501862 548.569519,441.910248 548.305176,442.318665 
	C548.301575,441.906952 548.297974,441.495270 548.502808,440.911621 
	C548.711304,440.739685 548.905151,440.916168 549.001709,441.004822 
z"/>
<path fill="none" opacity="1.000000" stroke="none" 
	d="
M967.459595,581.568481 
	C981.288696,600.317017 988.369324,620.821228 989.206177,643.940125 
	C989.899597,663.095459 987.136108,681.293579 978.644531,698.363281 
	C963.175110,729.459473 938.289001,748.726685 904.007751,754.879639 
	C849.232666,764.710876 796.305664,729.876648 784.115173,673.439148 
	C775.618408,634.102600 785.112671,599.454651 813.742004,571.140442 
	C832.365295,552.722168 855.325317,543.357361 882.052979,542.799927 
	C902.958069,542.363892 922.359009,546.243042 940.267578,557.072449 
	C950.782166,563.430664 959.689514,571.611267 967.459595,581.568481 
z"/>
<path fill="#7579FF" opacity="1.000000" stroke="none" 
	d="
M569.454712,567.348633 
	C567.235352,575.743835 564.549255,583.463318 558.620911,591.343140 
	C555.320557,582.310120 552.451050,574.456421 549.325256,565.901245 
	C546.527954,568.399902 543.924805,570.838440 541.203552,573.137085 
	C525.827087,586.125488 508.651154,587.688599 490.424957,580.570679 
	C462.481232,569.657898 445.854401,548.423035 436.969757,520.527100 
	C431.682129,503.925049 430.917114,487.148438 437.563049,470.716370 
	C449.123962,442.132019 476.221039,431.599518 504.234009,444.593384 
	C527.289307,455.287567 543.745178,473.047791 556.754822,494.328888 
	C566.761414,510.697510 572.079712,528.551086 571.881165,547.778748 
	C571.815125,554.179810 570.402100,560.566895 569.454712,567.348633 
z"/>
<path fill="#7579FF" opacity="1.000000" stroke="none" 
	d="
M315.245789,538.308044 
	C314.425507,538.630493 313.455627,538.758362 312.485748,538.886230 
	C312.455719,538.701477 312.425690,538.516724 312.395660,538.331970 
	C312.978424,538.174377 313.561157,538.016724 314.458740,537.801270 
	C314.773529,537.743469 315.096161,538.113464 315.245789,538.308044 
z"/>
<path fill="#7579FF" opacity="1.000000" stroke="none" 
	d="
M431.010803,560.992920 
	C431.274170,561.376892 431.452057,561.833069 431.629944,562.289246 
	C431.367004,562.092102 431.104034,561.894958 430.796722,561.452393 
	C430.752350,561.207031 430.925323,561.065063 431.010803,560.992920 
z"/>
</svg>